<svg xmlns="http://www.w3.org/2000/svg" width="132" height="133" viewBox="0 0 529.885 164.041">
  <g id="logo-group" transform="translate(-247.057 -301.979)">
    <g id="logo-center">
      <g id="title">
        <path id="path219923" d="M1359.516,8.564a60.694,60.694,0,0,0,24.815-5.27,61.948,61.948,0,0,0,20.2-14.054l-23.277-21.96a29.249,29.249,0,0,1-21.74,9.443,30.189,30.189,0,0,1-25.474-14.054h87.181V-53.363a61.456,61.456,0,0,0-18.007-43.7,61.666,61.666,0,0,0-43.7-18.227,62.174,62.174,0,0,0-43.92,18.227,61.455,61.455,0,0,0-18.007,43.7,61.455,61.455,0,0,0,18.007,43.7,62.174,62.174,0,0,0,43.92,18.227Zm-25.474-77.738a29.886,29.886,0,0,1,25.474-14.274,30.455,30.455,0,0,1,25.474,14.274Z" transform="translate(-1050.532 455.919)" stroke="#000" stroke-miterlimit="2" stroke-width="0"/>
        <path id="path219925" d="M1591.792-98.6a52.664,52.664,0,0,0-37.332-15.372,51.516,51.516,0,0,0-36.234,14.494,52.424,52.424,0,0,0-36.454-14.494,50.416,50.416,0,0,0-19.764,3.953v-5.929h-32.94V7.686h32.94V-61.268a19.822,19.822,0,0,1,19.764-19.764,20.012,20.012,0,0,1,19.984,19.764V7.686h32.94V-61.268a19.822,19.822,0,0,1,19.764-19.764,20.012,20.012,0,0,1,19.984,19.764V7.686h32.94V-61.268A52.342,52.342,0,0,0,1591.792-98.6Z" transform="translate(-1050.532 455.919)" stroke="#000" stroke-miterlimit="2" stroke-width="0"/>
        <path id="path219927" d="M1624.464,7.686h33.16V-119.023l-33.16,10.98Z" transform="translate(-1050.531 455.919)" stroke="#000" stroke-miterlimit="2" stroke-width="0"/>
        <path id="path219929" d="M1747.031-83.887v-30.744h-34.916V-153.94l-32.94,10.98v85.2a67.22,67.22,0,0,0,5.271,26.352,65.286,65.286,0,0,0,14.494,21.521,65.9,65.9,0,0,0,21.521,14.713,68.3,68.3,0,0,0,26.572,5.27v-32.94a34.864,34.864,0,0,1-34.916-34.916V-83.887Z" transform="translate(-1050.532 455.919)" stroke="#000" stroke-miterlimit="2" stroke-width="0"/>
        <path id="path219931" d="M1789.045,7.686h0V-46.336a38.472,38.472,0,0,1,38.43-38.43v-32.94a71.184,71.184,0,0,0-27.889,5.71,71.278,71.278,0,0,0-22.619,15.372,70.012,70.012,0,0,0-15.372,22.619,69.924,69.924,0,0,0-5.49,27.67V7.686Z" transform="translate(-1050.532 455.919)" stroke="#000" stroke-miterlimit="2" stroke-width="0"/>
      </g>
    </g>
  </g>
</svg>
